<?xml version="1.0" standalone="no"?>
<!DOCTYPE svg PUBLIC "-//W3C//DTD SVG 20010904//EN"
 "http://www.w3.org/TR/2001/REC-SVG-20010904/DTD/svg10.dtd">
<svg version="1.0" xmlns="http://www.w3.org/2000/svg"
 width="45.000000pt" height="44.000000pt" viewBox="0 0 45.000000 44.000000"
 preserveAspectRatio="xMidYMid meet">

<g transform="translate(0.000000,44.000000) scale(0.100000,-0.100000)"
fill="#000000" stroke="none">
<path d="M149 303 c-38 -36 -69 -72 -69 -79 0 -29 23 -22 68 20 27 26 52 46
56 46 3 0 6 -47 6 -105 0 -87 3 -105 15 -105 12 0 15 18 15 105 0 58 3 105 7
105 4 0 28 -21 54 -46 44 -43 69 -50 69 -20 0 13 -132 146 -145 146 -4 0 -38
-30 -76 -67z"/>
</g>
</svg>
